<svg width="33" height="28" viewBox="0 0 33 28" fill="none" xmlns="http://www.w3.org/2000/svg">
<path d="M29.4247 21.2731C27.4521 22.1545 26.2192 21.9542 25.8904 21.8741C27.5342 19.6306 28.4795 16.8663 28.4795 13.8616C28.4795 6.20967 22.1096 0 14.2603 0C6.41096 0 0 6.20967 0 13.9016C0 21.5536 6.36986 27.8033 14.2603 27.8033C16.2329 27.8033 18.0822 27.4027 19.8082 26.7216C24.411 29.1253 31.1096 27.7232 33 25.9204C31.9315 25.2393 30.0411 22.9557 29.4247 21.2731ZM14.2603 21.0728C10.1918 21.0728 6.90411 17.8678 6.90411 13.9016C6.90411 9.93547 10.1918 6.73048 14.2603 6.73048C18.3288 6.73048 21.6164 9.93547 21.6164 13.9016C21.6164 17.8678 18.3288 21.0728 14.2603 21.0728Z" fill="black"/>
</svg>
